#Comment line ignore any data following # character 
#Hierarchical Translation and Rotation (.htr) file 
[Header]	
#Header keywords are followed by a single value 
FileType HTR		#Single word string
DataType HTRS		#Translation followed by rotation and scale data
FileVersion 1		#integer
NumSegments 84		#integer
NumFrames 2		#integer
DataFrameRate 30		#integer, data frame rate in this file
EulerRotationOrder ZYX
CalibrationUnits mm
RotationUnits Degrees
GlobalAxisofGravity Y
BoneLengthAxis Y
ScaleFactor 1.00
[SegmentNames&Hierarchy]
#CHILD	PARENT
MASTER GLOBAL
root MASTER
chest root
L_mid_tent01 root
R_mid_tent01 root
spine01 root
Bip01_Neck chest
L_humerus chest
R_humerus chest
weapon_bone chest
Bip01_Head Bip01_Neck
eye_left_bone Bip01_Head
eye_right_bone Bip01_Head
L_forearm L_humerus
L_front_hand L_forearm
L_weapon_bone L_forearm
L_front_hand01_01 L_front_hand
L_front_hand02_01 L_front_hand
L_front_hand03_01 L_front_hand
L_front_hand01_02 L_front_hand01_01
L_front_hand02_02 L_front_hand02_01
L_front_hand03_02 L_front_hand03_01
R_forearm R_humerus
R_front_hand R_forearm
R_weapon_bone R_forearm
R_front_hand01_01 R_front_hand
R_front_hand02_01 R_front_hand
R_front_hand03_01 R_front_hand
R_front_hand01_02 R_front_hand01_01
R_front_hand02_02 R_front_hand02_01
R_front_hand03_02 R_front_hand03_01
null_rope01_connect L_mid_tent01
Rope1_Seg01 null_rope01_connect
Rope1_Seg02 Rope1_Seg01
Rope1_Seg03 Rope1_Seg02
Rope1_Seg04 Rope1_Seg03
Rope1_Seg05 Rope1_Seg04
Rope1_Seg06 Rope1_Seg05
Rope1_Seg07 Rope1_Seg06
Rope1_Seg09 Rope1_Seg07
L_mid_hand01 Rope1_Seg09
L_mid_hand02 Rope1_Seg09
L_mid_hand03 Rope1_Seg09
null_rope02_connect R_mid_tent01
Rope2_Seg01 null_rope02_connect
Rope2_Seg02 Rope2_Seg01
Rope2_Seg03 Rope2_Seg02
Rope2_Seg04 Rope2_Seg03
Rope2_Seg05 Rope2_Seg04
Rope2_Seg06 Rope2_Seg05
Rope2_Seg07 Rope2_Seg06
Rope2_Seg09 Rope2_Seg07
R_mid_hand01 Rope2_Seg09
R_mid_hand02 Rope2_Seg09
R_mid_hand03 Rope2_Seg09
spine02 spine01
spine03 spine02
pelvis spine03
null_rope03_connect pelvis
null_rope04_connect pelvis
Rope3_Seg01 null_rope03_connect
Rope3_Seg02 Rope3_Seg01
Rope3_Seg03 Rope3_Seg02
Rope3_Seg04 Rope3_Seg03
Rope3_Seg05 Rope3_Seg04
Rope3_Seg06 Rope3_Seg05
Rope3_Seg07 Rope3_Seg06
Rope3_Seg08 Rope3_Seg07
Rope3_Seg09 Rope3_Seg08
R_rear_hand01 Rope3_Seg09
R_rear_hand02 Rope3_Seg09
R_rear_hand03 Rope3_Seg09
Rope4_Seg01 null_rope04_connect
Rope4_Seg02 Rope4_Seg01
Rope4_Seg03 Rope4_Seg02
Rope4_Seg04 Rope4_Seg03
Rope4_Seg05 Rope4_Seg04
Rope4_Seg06 Rope4_Seg05
Rope4_Seg07 Rope4_Seg06
Rope4_Seg08 Rope4_Seg07
Rope4_Seg09 Rope4_Seg08
L_rear_hand01 Rope4_Seg09
L_rear_hand02 Rope4_Seg09
L_rear_hand03 Rope4_Seg09
[BasePosition]
#SegmentName Tx, Ty, Tz, Rx, Ry, Rz, BoneLength
MASTER 0.000000 0.000000 0.000000 -90.000000 0.000000 0.000000 10.000000 
root 0.000000 0.000000 0.000000 0.000000 0.000000 0.000000 10.000000 
chest 0.000000 0.000000 0.000000 0.000000 0.000000 0.000000 10.000000 
L_mid_tent01 0.000000 0.000000 0.000000 0.000000 0.000000 0.000000 10.000000 
R_mid_tent01 0.000000 0.000000 0.000000 0.000000 0.000000 0.000000 10.000000 
spine01 0.000000 0.000000 0.000000 0.000000 0.000000 0.000000 10.000000 
Bip01_Neck 0.000000 0.000000 0.000000 0.000000 0.000000 0.000000 10.000000 
L_humerus 0.000000 0.000000 0.000000 0.000000 0.000000 0.000000 10.000000 
R_humerus 0.000000 0.000000 0.000000 0.000000 0.000000 0.000000 10.000000 
weapon_bone 0.000000 0.000000 0.000000 0.000000 0.000000 0.000000 10.000000 
Bip01_Head 0.000000 0.000000 0.000000 0.000000 0.000000 0.000000 10.000000 
eye_left_bone 0.000000 0.000000 0.000000 0.000000 0.000000 0.000000 10.000000 
eye_right_bone 0.000000 0.000000 0.000000 0.000000 0.000000 0.000000 10.000000 
L_forearm 0.000000 0.000000 0.000000 0.000000 0.000000 0.000000 10.000000 
L_front_hand 0.000000 0.000000 0.000000 0.000000 0.000000 0.000000 10.000000 
L_weapon_bone 0.000000 0.000000 0.000000 0.000000 0.000000 0.000000 10.000000 
L_front_hand01_01 0.000000 0.000000 0.000000 0.000000 0.000000 0.000000 10.000000 
L_front_hand02_01 0.000000 0.000000 0.000000 0.000000 0.000000 0.000000 10.000000 
L_front_hand03_01 0.000000 0.000000 0.000000 0.000000 0.000000 0.000000 10.000000 
L_front_hand01_02 0.000000 0.000000 0.000000 0.000000 0.000000 0.000000 10.000000 
L_front_hand02_02 0.000000 0.000000 0.000000 0.000000 0.000000 0.000000 10.000000 
L_front_hand03_02 0.000000 0.000000 0.000000 0.000000 0.000000 0.000000 10.000000 
R_forearm 0.000000 0.000000 0.000000 0.000000 0.000000 0.000000 10.000000 
R_front_hand 0.000000 0.000000 0.000000 0.000000 0.000000 0.000000 10.000000 
R_weapon_bone 0.000000 0.000000 0.000000 0.000000 0.000000 0.000000 10.000000 
R_front_hand01_01 0.000000 0.000000 0.000000 0.000000 0.000000 0.000000 10.000000 
R_front_hand02_01 0.000000 0.000000 0.000000 0.000000 0.000000 0.000000 10.000000 
R_front_hand03_01 0.000000 0.000000 0.000000 0.000000 0.000000 0.000000 10.000000 
R_front_hand01_02 0.000000 0.000000 0.000000 0.000000 0.000000 0.000000 10.000000 
R_front_hand02_02 0.000000 0.000000 0.000000 0.000000 0.000000 0.000000 10.000000 
R_front_hand03_02 0.000000 0.000000 0.000000 0.000000 0.000000 0.000000 10.000000 
null_rope01_connect 0.000000 0.000000 0.000000 0.000000 0.000000 0.000000 10.000000 
Rope1_Seg01 0.000000 0.000000 0.000000 0.000000 0.000000 0.000000 10.000000 
Rope1_Seg02 0.000000 0.000000 0.000000 0.000000 0.000000 0.000000 10.000000 
Rope1_Seg03 0.000000 0.000000 0.000000 0.000000 0.000000 0.000000 10.000000 
Rope1_Seg04 0.000000 0.000000 0.000000 0.000000 0.000000 0.000000 10.000000 
Rope1_Seg05 0.000000 0.000000 0.000000 0.000000 0.000000 0.000000 10.000000 
Rope1_Seg06 0.000000 0.000000 0.000000 0.000000 0.000000 0.000000 10.000000 
Rope1_Seg07 0.000000 0.000000 0.000000 0.000000 0.000000 0.000000 10.000000 
Rope1_Seg09 0.000000 0.000000 0.000000 0.000000 0.000000 0.000000 10.000000 
L_mid_hand01 0.000000 0.000000 0.000000 0.000000 0.000000 0.000000 10.000000 
L_mid_hand02 0.000000 0.000000 0.000000 0.000000 0.000000 0.000000 10.000000 
L_mid_hand03 0.000000 0.000000 0.000000 0.000000 0.000000 0.000000 10.000000 
null_rope02_connect 0.000000 0.000000 0.000000 0.000000 0.000000 0.000000 10.000000 
Rope2_Seg01 0.000000 0.000000 0.000000 0.000000 0.000000 0.000000 10.000000 
Rope2_Seg02 0.000000 0.000000 0.000000 0.000000 0.000000 0.000000 10.000000 
Rope2_Seg03 0.000000 0.000000 0.000000 0.000000 0.000000 0.000000 10.000000 
Rope2_Seg04 0.000000 0.000000 0.000000 0.000000 0.000000 0.000000 10.000000 
Rope2_Seg05 0.000000 0.000000 0.000000 0.000000 0.000000 0.000000 10.000000 
Rope2_Seg06 0.000000 0.000000 0.000000 0.000000 0.000000 0.000000 10.000000 
Rope2_Seg07 0.000000 0.000000 0.000000 0.000000 0.000000 0.000000 10.000000 
Rope2_Seg09 0.000000 0.000000 0.000000 0.000000 0.000000 0.000000 10.000000 
R_mid_hand01 0.000000 0.000000 0.000000 0.000000 0.000000 0.000000 10.000000 
R_mid_hand02 0.000000 0.000000 0.000000 0.000000 0.000000 0.000000 10.000000 
R_mid_hand03 0.000000 0.000000 0.000000 0.000000 0.000000 0.000000 10.000000 
spine02 0.000000 0.000000 0.000000 0.000000 0.000000 0.000000 10.000000 
spine03 0.000000 0.000000 0.000000 0.000000 0.000000 0.000000 10.000000 
pelvis 0.000000 0.000000 0.000000 0.000000 0.000000 0.000000 10.000000 
null_rope03_connect 0.000000 0.000000 0.000000 0.000000 0.000000 0.000000 10.000000 
null_rope04_connect 0.000000 0.000000 0.000000 0.000000 0.000000 0.000000 10.000000 
Rope3_Seg01 0.000000 0.000000 0.000000 0.000000 0.000000 0.000000 10.000000 
Rope3_Seg02 0.000000 0.000000 0.000000 0.000000 0.000000 0.000000 10.000000 
Rope3_Seg03 0.000000 0.000000 0.000000 0.000000 0.000000 0.000000 10.000000 
Rope3_Seg04 0.000000 0.000000 0.000000 0.000000 0.000000 0.000000 10.000000 
Rope3_Seg05 0.000000 0.000000 0.000000 0.000000 0.000000 0.000000 10.000000 
Rope3_Seg06 0.000000 0.000000 0.000000 0.000000 0.000000 0.000000 10.000000 
Rope3_Seg07 0.000000 0.000000 0.000000 0.000000 0.000000 0.000000 10.000000 
Rope3_Seg08 0.000000 0.000000 0.000000 0.000000 0.000000 0.000000 10.000000 
Rope3_Seg09 0.000000 0.000000 0.000000 0.000000 0.000000 0.000000 10.000000 
R_rear_hand01 0.000000 0.000000 0.000000 0.000000 0.000000 0.000000 10.000000 
R_rear_hand02 0.000000 0.000000 0.000000 0.000000 0.000000 0.000000 10.000000 
R_rear_hand03 0.000000 0.000000 0.000000 0.000000 0.000000 0.000000 10.000000 
Rope4_Seg01 0.000000 0.000000 0.000000 0.000000 0.000000 0.000000 10.000000 
Rope4_Seg02 0.000000 0.000000 0.000000 0.000000 0.000000 0.000000 10.000000 
Rope4_Seg03 0.000000 0.000000 0.000000 0.000000 0.000000 0.000000 10.000000 
Rope4_Seg04 0.000000 0.000000 0.000000 0.000000 0.000000 0.000000 10.000000 
Rope4_Seg05 0.000000 0.000000 0.000000 0.000000 0.000000 0.000000 10.000000 
Rope4_Seg06 0.000000 0.000000 0.000000 0.000000 0.000000 0.000000 10.000000 
Rope4_Seg07 0.000000 0.000000 0.000000 0.000000 0.000000 0.000000 10.000000 
Rope4_Seg08 0.000000 0.000000 0.000000 0.000000 0.000000 0.000000 10.000000 
Rope4_Seg09 0.000000 0.000000 0.000000 0.000000 0.000000 0.000000 10.000000 
L_rear_hand01 0.000000 0.000000 0.000000 0.000000 0.000000 0.000000 10.000000 
L_rear_hand02 0.000000 0.000000 0.000000 0.000000 0.000000 0.000000 10.000000 
L_rear_hand03 0.000000 0.000000 0.000000 0.000000 0.000000 0.000000 10.000000 
#Beginning of Data. Separated by tabs
#Fr	Tx	Ty	Tz	Rx	Ry	Rz	SF
[MASTER]
32 0.000000 0.000000 0.000000 0.001660 0.001660 0.001660 0.000000
33 0.000000 0.000000 0.000000 0.001660 0.001660 0.001660 0.000000
[root]
32 -73.834976 -63.917881 1019.680969 -91.123741 -23.987679 -91.195099 1024.346802
33 -66.426987 -64.057892 1012.053955 -91.072533 -23.298090 -91.293022 1016.252502
[chest]
32 -84.512650 -34.090519 0.000000 -4.603282 -0.602022 160.505508 91.129311
33 -84.512650 -34.090519 0.000000 -5.036148 -0.259806 156.756546 91.129311
[L_mid_tent01]
32 27.299534 22.177362 -249.918015 -16.920490 20.352802 -25.431358 252.380890
33 27.299534 22.177357 -249.918015 -17.139479 20.883492 -24.222765 252.380890
[R_mid_tent01]
32 23.228794 24.509907 226.238495 -160.462723 -2.164050 -23.096476 228.744751
33 23.228794 24.509907 226.238495 -160.085800 -3.551884 -21.939613 228.744751
[spine01]
32 -0.361383 -0.195265 0.000000 -0.337964 0.333442 11.344943 0.410763
33 -0.361383 -0.195265 0.000000 -0.378697 0.327065 11.210673 0.410763
[Bip01_Neck]
32 165.484543 71.581718 0.000119 175.896118 1.177290 24.871183 180.302734
33 165.484543 71.581718 0.000119 175.896118 1.177290 24.871183 180.302734
[L_humerus]
32 -13.983130 -135.272980 -120.471481 -89.629272 1.070228 -148.372803 181.680161
33 -13.983130 -135.272980 -120.471481 -90.775192 1.295225 -145.395386 181.680161
[R_humerus]
32 -13.983309 -135.273102 125.287651 100.763382 -1.664071 -154.616135 184.909012
33 -13.983309 -135.273102 125.287651 101.741821 -2.263502 -151.865585 184.909012
[weapon_bone]
32 235.964890 -300.705902 0.000000 0.000000 -89.951546 -128.212341 382.234833
33 235.964890 -300.705902 0.000000 0.000000 -89.951546 -128.212341 382.234833
[Bip01_Head]
32 213.253784 193.093857 -15.829373 8.831813 6.924811 -64.416893 288.119720
33 211.619385 194.870407 -17.531836 9.741366 7.636498 -66.411171 288.209290
[eye_left_bone]
32 -24.626970 125.451866 -64.772606 0.000000 -90.000000 -99.840431 143.318359
33 -24.626970 125.451866 -64.772606 0.000000 -90.000000 -99.840431 143.318359
[eye_right_bone]
32 -24.626970 125.451866 64.327362 0.000000 -89.960434 80.159386 143.117676
33 -24.626970 125.451866 64.327362 0.000000 -89.960434 80.159386 143.117676
[L_forearm]
32 322.776093 0.000000 -0.000119 0.000038 0.002347 -88.165718 322.776093
33 322.776093 0.000000 -0.000119 0.000027 0.002347 -88.671753 322.776093
[L_front_hand]
32 241.149185 -0.042021 -3.300071 -177.751907 -0.313519 -73.359276 241.171753
33 241.149185 -0.042021 -3.300071 -177.739426 -0.180324 -76.756081 241.171753
[L_weapon_bone]
32 156.183838 0.000000 0.000000 0.001671 0.001648 0.783094 156.183838
33 156.183838 0.000000 0.000000 0.001663 0.001657 0.199498 156.183838
[L_front_hand01_01]
32 86.095154 20.947098 -0.655860 0.405585 -0.442306 -4.620490 88.609184
33 86.095154 20.947098 -0.655860 0.405585 -0.442306 -4.620490 88.609184
[L_front_hand02_01]
32 86.935165 -11.437475 24.513514 116.959450 3.630817 1.495453 91.046425
33 86.935165 -11.437475 24.513514 116.959450 3.630817 1.495453 91.046425
[L_front_hand03_01]
32 86.637497 -14.123976 -20.424902 -118.420097 -4.656303 -0.152527 90.126129
33 86.637497 -14.123976 -20.424902 -118.420097 -4.656303 -0.152527 90.126129
[L_front_hand01_02]
32 71.020905 -0.000179 0.000030 0.001534 0.001777 -8.378850 71.020905
33 71.020905 -0.000179 0.000030 0.001534 0.001777 -8.378850 71.020905
[L_front_hand02_02]
32 71.020927 -0.000119 0.000060 0.001534 0.001777 -8.378850 71.020927
33 71.020927 -0.000119 0.000060 0.001534 0.001777 -8.378850 71.020927
[L_front_hand03_02]
32 71.020905 -0.000060 0.000060 0.001534 0.001777 -8.378850 71.020905
33 71.020905 -0.000060 0.000060 0.001534 0.001777 -8.378850 71.020905
[R_forearm]
32 322.776428 -0.000060 0.000030 0.210756 -0.039723 -80.500038 322.776428
33 322.776428 -0.000060 0.000030 0.207718 -0.035031 -81.006409 322.776428
[R_front_hand]
32 238.847015 -0.006795 2.210259 -1.682729 -0.394278 -91.878616 238.857239
33 238.847015 -0.006795 2.210259 -1.679449 -0.407384 -92.315765 238.857239
[R_weapon_bone]
32 155.664093 0.002503 -0.000030 0.003474 0.001215 -92.161949 155.664078
33 155.664093 0.002503 -0.000030 0.003484 0.001189 -91.286743 155.664078
[R_front_hand01_01]
32 87.624611 14.231146 22.918642 -116.960213 3.496675 -1.324139 91.683487
33 87.624611 14.231146 22.918642 -116.960213 3.496675 -1.324139 91.683487
[R_front_hand02_01]
32 89.356956 14.367283 -19.491137 118.419647 -4.257089 0.609827 92.579636
33 89.356956 14.367283 -19.491137 118.419647 -4.257089 0.609827 92.579636
[R_front_hand03_01]
32 87.286232 -22.307278 -0.143439 -0.387970 -0.231462 4.232001 90.091743
33 87.286232 -22.307278 -0.143439 -0.387970 -0.231462 4.232001 90.091743
[R_front_hand01_02]
32 71.020905 0.000060 0.000119 0.001777 0.001534 8.377220 71.020905
33 71.020905 0.000060 0.000119 0.001777 0.001534 8.377220 71.020905
[R_front_hand02_02]
32 71.020844 -0.000030 -0.000119 0.001777 0.001534 8.377220 71.020836
33 71.020844 -0.000030 -0.000119 0.001777 0.001534 8.377220 71.020836
[R_front_hand03_02]
32 71.020905 0.000000 0.000030 0.001777 0.001534 8.377220 71.020905
33 71.020905 0.000000 0.000030 0.001777 0.001534 8.377220 71.020905
[null_rope01_connect]
32 328.732483 0.000000 -0.000238 -84.175270 -62.250031 -139.193283 328.732483
33 328.732483 0.000000 -0.000238 -85.561272 -61.612343 -139.830551 328.732483
[Rope1_Seg01]
32 0.000000 0.000000 0.000000 58.722824 -18.383295 -127.973595 0.000000
33 0.000000 0.000000 0.000000 48.643753 -8.018718 -120.301392 0.000000
[Rope1_Seg02]
32 139.999863 -0.000179 0.000000 -11.785402 10.922281 3.112161 139.999863
33 139.999863 -0.000179 0.000000 -11.894160 4.968387 7.104282 139.999863
[Rope1_Seg03]
32 139.999924 0.000060 -0.000060 -14.678577 11.021425 5.334245 139.999924
33 139.999924 0.000060 -0.000060 -8.671126 2.877156 7.365122 139.999924
[Rope1_Seg04]
32 139.999924 -0.000060 -0.000119 -18.738865 12.600858 8.695339 139.999924
33 139.999924 -0.000060 -0.000119 -6.590373 1.545251 7.736735 139.999924
[Rope1_Seg05]
32 139.999832 0.000119 -0.000060 -0.680346 -2.397323 3.499030 139.999832
33 139.999832 0.000119 -0.000060 -5.753252 2.122577 7.339234 139.999832
[Rope1_Seg06]
32 139.999954 0.000119 -0.000060 6.516271 -6.607770 -2.156346 139.999954
33 139.999954 0.000119 -0.000060 -2.472410 0.995871 3.418789 139.999954
[Rope1_Seg07]
32 139.999985 0.000060 0.000000 1.648489 -2.383003 0.026713 139.999985
33 139.999985 0.000060 0.000000 -1.151030 0.287705 1.888179 139.999985
[Rope1_Seg09]
32 121.602913 0.000119 -0.000089 -89.793175 -1.359789 0.847147 121.602913
33 121.602913 0.000119 -0.000089 -89.793175 -1.359789 0.847147 121.602913
[L_mid_hand01]
32 103.859421 1.038730 8.195221 105.620987 -22.988335 -6.761933 104.187431
33 103.859421 1.038730 8.195221 105.620987 -22.988335 -6.761933 104.187431
[L_mid_hand02]
32 105.572853 -4.139662 -10.864139 -139.491974 20.327143 -21.528740 106.211075
33 105.572853 -4.139662 -10.864139 -139.491974 20.327143 -21.528740 106.211075
[L_mid_hand03]
32 104.641464 17.579376 -3.913581 -17.354424 7.254999 25.905664 106.179977
33 104.641464 17.579376 -3.913581 -17.354424 7.254999 25.905664 106.179977
[null_rope02_connect]
32 328.732849 0.000179 -0.000119 -127.373375 72.285126 -84.095757 328.732849
33 328.732849 0.000179 -0.000119 -125.607056 71.755608 -80.242332 328.732849
[Rope2_Seg01]
32 0.000087 0.000112 0.000007 50.529812 -36.154789 -66.332802 0.000142
33 0.000091 0.000113 0.000003 60.041039 -27.636463 -73.003479 0.000146
[Rope2_Seg02]
32 139.999741 -0.000060 -0.000119 5.863883 7.291011 -12.538505 139.999756
33 139.999741 -0.000060 -0.000119 5.794899 4.728200 -10.051968 139.999756
[Rope2_Seg03]
32 140.000107 0.000030 0.000000 14.233417 6.078041 -16.296013 140.000107
33 140.000107 0.000030 0.000000 11.474844 2.335551 -12.577357 140.000107
[Rope2_Seg04]
32 139.999802 0.000000 -0.000060 27.946383 0.446788 -19.823261 139.999802
33 139.999802 0.000000 -0.000060 15.811345 -1.188640 -12.978285 139.999802
[Rope2_Seg05]
32 139.999985 -0.000060 0.000119 -6.499072 5.853014 1.365459 139.999985
33 139.999985 -0.000060 0.000119 -12.030879 9.687466 4.355324 139.999985
[Rope2_Seg06]
32 139.999893 -0.000030 -0.000119 -26.269892 9.674002 10.504859 139.999893
33 139.999893 -0.000030 -0.000119 -22.171324 9.063742 10.483606 139.999893
[Rope2_Seg07]
32 139.999893 0.000060 -0.000060 -9.903645 1.971265 4.837119 139.999893
33 139.999893 0.000060 -0.000060 -8.250553 2.098887 4.443869 139.999893
[Rope2_Seg09]
32 121.338966 0.000089 -0.000060 33.793236 -1.359788 -0.847141 121.338966
33 121.338966 0.000089 -0.000060 33.793236 -1.359788 -0.847141 121.338966
[R_mid_hand01]
32 104.680779 11.144459 -10.335981 -44.070736 19.764444 21.986286 105.778534
33 104.680779 11.144459 -10.335981 -44.070736 19.764444 21.986286 105.778534
[R_mid_hand02]
32 104.070427 2.443552 8.231699 74.148849 -24.768806 7.320621 104.424065
33 104.070427 2.443552 8.231699 74.148849 -24.768812 7.320621 104.424065
[R_mid_hand03]
32 106.028137 -11.221827 -5.996406 -166.566208 8.416404 -28.789036 106.788818
33 106.028137 -11.221827 -5.996406 -166.566208 8.416404 -28.789036 106.788818
[spine02]
32 129.756927 0.001550 0.000119 -0.047751 -3.957754 -7.170718 129.756927
33 129.756927 0.001550 0.000119 -0.039869 -3.946365 -7.276325 129.756927
[spine03]
32 79.071915 0.007594 -0.426693 1.922361 -2.488453 22.115055 79.073067
33 79.092819 0.003967 -0.222629 1.917884 -2.736731 23.039728 79.093132
[pelvis]
32 169.435242 0.051022 0.000000 0.003529 2.810601 -4.159748 169.435257
33 169.435242 0.051022 0.000000 0.002467 2.917072 -4.244019 169.435257
[null_rope03_connect]
32 -1.257226 -2.466202 137.391083 114.003021 -88.639153 -22.341476 137.418976
33 -1.257226 -2.466202 137.391083 112.225464 -88.621429 -21.853910 137.418976
[null_rope04_connect]
32 -1.259640 -2.480268 -137.844437 114.003021 -88.639153 -22.341476 137.872513
33 -1.259640 -2.480268 -137.844437 112.225464 -88.621429 -21.853910 137.872513
[Rope3_Seg01]
32 0.000000 0.000000 0.000000 -129.655869 -6.956126 -85.985275 0.000000
33 0.000000 0.000000 0.000000 -132.729202 10.832405 -89.989891 0.000000
[Rope3_Seg02]
32 139.999924 -0.000119 0.000060 0.064524 -2.173723 -2.270170 139.999924
33 139.999924 -0.000119 0.000060 0.332583 -1.782238 -4.406775 139.999924
[Rope3_Seg03]
32 139.999924 -0.000119 0.000119 0.109167 -2.543747 -2.612936 139.999924
33 139.999924 -0.000119 0.000119 0.289953 -2.114223 -5.154737 139.999924
[Rope3_Seg04]
32 139.999924 0.000119 0.000000 0.875252 -10.088651 -3.536729 139.999924
33 139.999924 0.000119 0.000000 0.387581 -5.903411 -7.665301 139.999924
[Rope3_Seg05]
32 139.999924 -0.000238 0.000060 -0.572189 2.216733 -3.314223 139.999924
33 139.999924 -0.000238 0.000060 0.342448 -4.368108 -7.624010 139.999924
[Rope3_Seg06]
32 139.999893 -0.000119 -0.000060 -1.459405 19.555529 -1.168315 139.999893
33 139.999893 -0.000119 -0.000060 -1.346182 11.072633 -0.064239 139.999893
[Rope3_Seg07]
32 139.999771 0.000060 -0.000119 0.741400 9.750578 -0.580384 139.999771
33 139.999771 0.000060 -0.000119 0.332688 13.735052 2.582438 139.999771
[Rope3_Seg08]
32 139.999985 -0.000060 0.000000 0.911547 4.636329 -0.510874 139.999985
33 139.999985 -0.000060 0.000000 0.913933 6.413274 0.191560 139.999985
[Rope3_Seg09]
32 90.185997 -0.000179 -0.000060 89.793228 -1.359877 -0.847183 90.185997
33 90.185997 -0.000179 -0.000060 89.793228 -1.359877 -0.847183 90.185997
[R_rear_hand01]
32 103.366196 -6.073594 -10.757982 -160.090088 14.865479 -24.717995 104.101845
33 103.366196 -6.073594 -10.757982 -160.090088 14.865479 -24.717995 104.101845
[R_rear_hand02]
32 100.509819 12.039542 -7.992327 -35.711582 16.148796 24.170401 101.543350
33 100.509819 12.039542 -7.992327 -35.711582 16.148796 24.170401 101.543350
[R_rear_hand03]
32 101.539970 5.215704 5.435467 83.699944 -25.497599 6.583542 101.819031
33 101.539970 5.215704 5.435467 83.699936 -25.497597 6.583542 101.819031
[Rope4_Seg01]
32 0.000010 0.000038 -0.000114 46.289982 -2.509216 -125.508064 0.000121
33 0.000010 0.000038 -0.000114 40.614609 16.764133 -123.253212 0.000121
[Rope4_Seg02]
32 139.999985 0.000060 0.000119 3.511098 14.363171 15.347709 139.999985
33 139.999985 0.000060 0.000119 2.995801 10.808187 19.678877 139.999985
[Rope4_Seg03]
32 139.999924 0.000000 -0.000238 0.976700 13.033304 10.736602 139.999924
33 139.999924 0.000000 -0.000238 -0.578114 9.610832 14.629570 139.999924
[Rope4_Seg04]
32 139.999985 0.000000 0.000119 0.530167 11.673037 6.721420 139.999985
33 139.999985 0.000000 0.000119 -1.844028 8.591024 10.408595 139.999985
[Rope4_Seg05]
32 139.999802 -0.000060 -0.000119 -2.110132 -1.210339 4.066327 139.999802
33 139.999802 -0.000060 -0.000119 -2.069238 -0.234981 3.612505 139.999802
[Rope4_Seg06]
32 139.999924 0.000000 0.000060 -3.192609 -9.725036 3.049319 139.999924
33 139.999924 0.000000 0.000060 -1.498597 -6.248562 -0.010609 139.999924
[Rope4_Seg07]
32 139.999802 0.000000 0.000000 -1.861774 -10.248087 2.115475 139.999802
33 139.999802 0.000000 0.000000 -0.831246 -10.495034 -2.072602 139.999802
[Rope4_Seg08]
32 139.999924 0.000000 0.000119 -2.089430 -4.260525 1.524811 139.999924
33 139.999924 0.000000 0.000119 -2.080691 -5.467144 -0.047524 139.999924
[Rope4_Seg09]
32 90.185791 0.000060 0.000060 -135.617828 2.228885 0.850567 90.185791
33 90.185791 0.000060 0.000060 -135.617828 2.228885 0.850567 90.185791
[L_rear_hand01]
32 101.696655 -8.392275 -7.654577 -36.242062 -14.765306 157.809067 102.329041
33 101.696655 -8.392275 -7.654577 -36.242058 -14.765300 157.809067 102.329041
[L_rear_hand02]
32 102.726799 -1.568258 5.773216 83.814369 23.151869 173.698151 102.900848
33 102.726799 -1.568258 5.773216 83.814362 23.151869 173.698151 102.900848
[L_rear_hand03]
32 104.552910 9.721220 -10.420293 -159.518845 -14.052428 -157.569275 105.519653
33 104.552910 9.721220 -10.420293 -159.518845 -14.052428 -157.569275 105.519653
